<?xml version="1.0" encoding="utf-8"?>
<!-- Generator: Adobe Illustrator 17.0.0, SVG Export Plug-In . SVG Version: 6.00 Build 0)  -->
<!DOCTYPE svg PUBLIC "-//W3C//DTD SVG 1.1//EN" "http://www.w3.org/Graphics/SVG/1.1/DTD/svg11.dtd">
<svg version="1.1" id="Layer_1" xmlns="http://www.w3.org/2000/svg" xmlns:xlink="http://www.w3.org/1999/xlink" x="0px" y="0px"
	 width="29.333px" height="36px" viewBox="0 0 29.333 36" enable-background="new 0 0 29.333 36" xml:space="preserve">
<g>
	<path fill="#F0C419" d="M11.757,36c-3.261,0-6.039-1.148-8.336-3.444C1.14,30.275,0,27.504,0,24.243V11.591h5.878v12.652
		c0,1.623,0.574,3.008,1.722,4.156c1.148,1.148,2.534,1.722,4.156,1.722c1.607,0,2.985-0.574,4.133-1.722
		c1.163-1.148,1.745-2.534,1.745-4.156V11.591h5.879v12.652c0,3.261-1.156,6.039-3.467,8.336C17.765,34.86,15.002,36,11.757,36z"/>
	<rect x="11.008" fill="#F0C419" width="18.326" height="5.253"/>
</g>
</svg>
